<mxfile host="65bd71144e">
    <diagram id="aWdt4YoU9_3cUsZrO9WC" name="Page-1">
        <mxGraphModel dx="2218" dy="1325" grid="1" gridSize="10" guides="1" tooltips="1" connect="1" arrows="1" fold="1" page="1" pageScale="1" pageWidth="1100" pageHeight="850" background="#FFCCFF" math="0" shadow="1">
            <root>
                <mxCell id="0"/>
                <mxCell id="1" parent="0"/>
                <mxCell id="31" value="" style="edgeStyle=none;html=1;rounded=1;" parent="1" source="2" target="4" edge="1">
                    <mxGeometry relative="1" as="geometry"/>
                </mxCell>
                <mxCell id="32" value="" style="edgeStyle=none;html=1;rounded=1;" parent="1" source="2" target="4" edge="1">
                    <mxGeometry relative="1" as="geometry"/>
                </mxCell>
                <mxCell id="2" value="Primitive Data Types" style="rounded=1;whiteSpace=wrap;html=1;fontStyle=1;fontSize=20;fillColor=#e1d5e7;strokeColor=#9673a6;gradientColor=#663300;" parent="1" vertex="1">
                    <mxGeometry x="65" y="-80" width="320" height="40" as="geometry"/>
                </mxCell>
                <mxCell id="19" value="" style="edgeStyle=none;html=1;rounded=1;" parent="1" source="3" target="18" edge="1">
                    <mxGeometry relative="1" as="geometry"/>
                </mxCell>
                <mxCell id="3" value="S" style="whiteSpace=wrap;html=1;aspect=fixed;fillColor=#fff2cc;strokeColor=#d6b656;gradientColor=#B3FF66;rounded=1;" parent="1" vertex="1">
                    <mxGeometry x="245" width="40" height="40" as="geometry"/>
                </mxCell>
                <mxCell id="17" value="" style="edgeStyle=none;html=1;rounded=1;" parent="1" source="4" target="16" edge="1">
                    <mxGeometry relative="1" as="geometry"/>
                </mxCell>
                <mxCell id="4" value="S" style="whiteSpace=wrap;html=1;aspect=fixed;fillColor=#fff2cc;strokeColor=#d6b656;gradientColor=#B3FF66;rounded=1;" parent="1" vertex="1">
                    <mxGeometry x="165" width="40" height="40" as="geometry"/>
                </mxCell>
                <mxCell id="14" value="" style="edgeStyle=none;html=1;rounded=1;" parent="1" source="5" target="13" edge="1">
                    <mxGeometry relative="1" as="geometry"/>
                </mxCell>
                <mxCell id="5" value="N" style="whiteSpace=wrap;html=1;aspect=fixed;fillColor=#fff2cc;strokeColor=#d6b656;gradientColor=#B3FF66;rounded=1;" parent="1" vertex="1">
                    <mxGeometry x="85" width="40" height="40" as="geometry"/>
                </mxCell>
                <mxCell id="11" value="" style="edgeStyle=none;html=1;rounded=1;" parent="1" source="6" target="10" edge="1">
                    <mxGeometry relative="1" as="geometry"/>
                </mxCell>
                <mxCell id="6" value="N" style="whiteSpace=wrap;html=1;aspect=fixed;fillColor=#fff2cc;strokeColor=#d6b656;gradientColor=#B3FF66;rounded=1;" parent="1" vertex="1">
                    <mxGeometry x="5" width="40" height="40" as="geometry"/>
                </mxCell>
                <mxCell id="21" value="" style="edgeStyle=none;html=1;rounded=1;" parent="1" source="7" target="20" edge="1">
                    <mxGeometry relative="1" as="geometry"/>
                </mxCell>
                <mxCell id="7" value="B" style="whiteSpace=wrap;html=1;aspect=fixed;fillColor=#fff2cc;strokeColor=#d6b656;gradientColor=#B3FF66;rounded=1;" parent="1" vertex="1">
                    <mxGeometry x="325" width="40" height="40" as="geometry"/>
                </mxCell>
                <mxCell id="25" value="" style="edgeStyle=none;html=1;rounded=1;" parent="1" source="8" target="24" edge="1">
                    <mxGeometry relative="1" as="geometry"/>
                </mxCell>
                <mxCell id="8" value="B" style="whiteSpace=wrap;html=1;aspect=fixed;fillColor=#fff2cc;strokeColor=#d6b656;gradientColor=#B3FF66;rounded=1;" parent="1" vertex="1">
                    <mxGeometry x="405" width="40" height="40" as="geometry"/>
                </mxCell>
                <mxCell id="27" value="" style="edgeStyle=none;html=1;rounded=1;" parent="1" source="9" target="26" edge="1">
                    <mxGeometry relative="1" as="geometry"/>
                </mxCell>
                <mxCell id="9" value="U" style="whiteSpace=wrap;html=1;aspect=fixed;fillColor=#fff2cc;strokeColor=#d6b656;gradientColor=#B3FF66;rounded=1;" parent="1" vertex="1">
                    <mxGeometry x="495" width="40" height="40" as="geometry"/>
                </mxCell>
                <mxCell id="10" value="Number" style="whiteSpace=wrap;html=1;gradientColor=#3399FF;rounded=1;" parent="1" vertex="1">
                    <mxGeometry x="-20" y="80" width="80" height="40" as="geometry"/>
                </mxCell>
                <mxCell id="13" value="Null" style="whiteSpace=wrap;html=1;gradientColor=#3399FF;rounded=1;" parent="1" vertex="1">
                    <mxGeometry x="60" y="160" width="90" height="40" as="geometry"/>
                </mxCell>
                <mxCell id="16" value="String" style="whiteSpace=wrap;html=1;gradientColor=#3399FF;rounded=1;" parent="1" vertex="1">
                    <mxGeometry x="135" y="80" width="90" height="40" as="geometry"/>
                </mxCell>
                <mxCell id="18" value="Symbol" style="whiteSpace=wrap;html=1;labelBackgroundColor=none;labelBorderColor=none;rounded=1;gradientColor=#3399FF;" parent="1" vertex="1">
                    <mxGeometry x="215" y="160" width="100" height="40" as="geometry"/>
                </mxCell>
                <mxCell id="20" value="Boolean" style="whiteSpace=wrap;html=1;gradientColor=#3399FF;rounded=1;" parent="1" vertex="1">
                    <mxGeometry x="300" y="80" width="90" height="40" as="geometry"/>
                </mxCell>
                <mxCell id="24" value="BigInt" style="whiteSpace=wrap;html=1;gradientColor=#3399FF;rounded=1;" parent="1" vertex="1">
                    <mxGeometry x="375" y="160" width="100" height="40" as="geometry"/>
                </mxCell>
                <mxCell id="26" value="Undefined" style="whiteSpace=wrap;html=1;gradientColor=#3399FF;rounded=1;" parent="1" vertex="1">
                    <mxGeometry x="465" y="80" width="100" height="40" as="geometry"/>
                </mxCell>
                <mxCell id="33" value="" style="endArrow=classic;html=1;exitX=0.475;exitY=0.975;exitDx=0;exitDy=0;exitPerimeter=0;entryX=1;entryY=0;entryDx=0;entryDy=0;rounded=1;" parent="1" source="2" target="5" edge="1">
                    <mxGeometry width="50" height="50" relative="1" as="geometry">
                        <mxPoint x="45" y="30" as="sourcePoint"/>
                        <mxPoint x="95" y="-20" as="targetPoint"/>
                    </mxGeometry>
                </mxCell>
                <mxCell id="34" value="" style="endArrow=classic;html=1;entryX=1;entryY=0;entryDx=0;entryDy=0;exitX=0.478;exitY=0.975;exitDx=0;exitDy=0;exitPerimeter=0;rounded=1;" parent="1" source="2" target="6" edge="1">
                    <mxGeometry width="50" height="50" relative="1" as="geometry">
                        <mxPoint x="215" y="-40" as="sourcePoint"/>
                        <mxPoint x="160" y="260" as="targetPoint"/>
                    </mxGeometry>
                </mxCell>
                <mxCell id="35" value="" style="endArrow=classic;html=1;entryX=0;entryY=0;entryDx=0;entryDy=0;rounded=1;" parent="1" target="3" edge="1">
                    <mxGeometry width="50" height="50" relative="1" as="geometry">
                        <mxPoint x="225" y="-40" as="sourcePoint"/>
                        <mxPoint x="170" y="270" as="targetPoint"/>
                    </mxGeometry>
                </mxCell>
                <mxCell id="36" value="" style="endArrow=classic;html=1;entryX=0;entryY=0;entryDx=0;entryDy=0;exitX=0.5;exitY=1;exitDx=0;exitDy=0;rounded=1;" parent="1" source="2" target="7" edge="1">
                    <mxGeometry width="50" height="50" relative="1" as="geometry">
                        <mxPoint x="130" y="330" as="sourcePoint"/>
                        <mxPoint x="180" y="280" as="targetPoint"/>
                    </mxGeometry>
                </mxCell>
                <mxCell id="37" value="" style="endArrow=classic;html=1;entryX=0;entryY=0;entryDx=0;entryDy=0;exitX=0.5;exitY=1;exitDx=0;exitDy=0;rounded=1;" parent="1" source="2" target="8" edge="1">
                    <mxGeometry width="50" height="50" relative="1" as="geometry">
                        <mxPoint x="140" y="340" as="sourcePoint"/>
                        <mxPoint x="190" y="290" as="targetPoint"/>
                    </mxGeometry>
                </mxCell>
                <mxCell id="38" value="" style="endArrow=classic;html=1;entryX=0;entryY=0;entryDx=0;entryDy=0;rounded=1;exitX=0.5;exitY=1;exitDx=0;exitDy=0;" parent="1" source="2" target="9" edge="1">
                    <mxGeometry width="50" height="50" relative="1" as="geometry">
                        <mxPoint x="245" y="-40" as="sourcePoint"/>
                        <mxPoint x="435" y="-30" as="targetPoint"/>
                    </mxGeometry>
                </mxCell>
            </root>
        </mxGraphModel>
    </diagram>
</mxfile>